<?xml version="1.0" encoding="utf-8"?>
<!-- Generator: Adobe Illustrator 19.2.1, SVG Export Plug-In . SVG Version: 6.00 Build 0)  -->
<svg version="1.1" id="å›¾å±‚_1" xmlns="http://www.w3.org/2000/svg" xmlns:xlink="http://www.w3.org/1999/xlink" x="0px" y="0px"
     viewBox="0 0 200 200" style="enable-background:new 0 0 200 200;" xml:space="preserve">
<style type="text/css">
    .st0{fill:url(#SVGID_1_);}
    .st1{fill:url(#SVGID_2_);}
</style>
<text transform="matrix(1 0 0 1 647.6665 155)" style="display:none;fill:#0FA8D4; font-family:'¾­µä·±Ó¡×­ Regular'; font-size:166.6667px;">æ™¯</text>
<g>
    <g>
        <linearGradient id="SVGID_1_" gradientUnits="userSpaceOnUse" x1="8.1874" y1="103.488" x2="197.6035" y2="103.488">
            <stop  offset="0" style="stop-color:#26C5FF"/>
            <stop  offset="1" style="stop-color:#0D70FF"/>
        </linearGradient>
        <path class="st0" d="M196,82c0.3,0.3,0.5,0.6,0.8,1c0.3,0.4,0.5,1,0.6,1.6c0.1,0.7,0.2,1.4,0.2,2.1c0,0.7,0,1.3,0,1.9l-1.6,1.6
            c-1.4,0.3-3.1,0.5-5.1,0.6c-2.1,0.1-4.5,0.1-7.2,0c-2.7-0.1-5.1-0.3-7.2-0.4c-2.1-0.1-3.8-0.2-5.1-0.2c0.5,1.6,0.6,4.1,0.2,7.4
            c-0.4,3.3-2,6.9-4.7,10.9c-2.7,4-5.7,6.6-8.8,8c-3.2,1.4-5.8,1.9-8,1.6c-2.5,0-5.4,0-8.8,0c-3.4,0-7.3,0-11.5,0c-4.3,0-8,0-11.1,0
            c-3.2,0-5.8,0-8,0v6.6c3.8,0.5,8.7,0.8,14.6,0.8c5.9,0,12.9-0.1,21-0.4c8.1-0.3,15.2-0.1,21.4,0.4c3.9,0.3,7.3,0.8,10.4,1.3
            c4.5,0.8,8.6,3,11.6,6.4c1.4,1.6,2.6,3.4,3.6,5.4c2.3,4.7,3,10.6,2.1,17.9c-1,7.3-1.5,13.6-1.6,19.1c-0.1,5.5,0.8,9.9,2.7,13.2
            c0.3,0.3,0.5,0.6,0.8,1c0.3,0.4,0.5,0.9,0.6,1.4c0.1,0.5,0.2,1,0.2,1.4c0,0.4,0,0.8,0,1l0,0c0,1.1-0.4,2.1-1.2,2.8l-2.1,2.1h-0.4
            c-3.4,0-6.6-1.6-8.4-4.5c0,0,0,0,0-0.1c-1.2-1.9-2.1-4.2-2.7-7c-0.5-2.7-0.9-5.1-1-7c-0.1-1.9-0.3-3.4-0.6-4.5
            c-0.3-1.6-0.4-3.7-0.4-6.2s0.3-5.3,0.8-8.6c0.5-3.3,1.1-6.2,1.6-8.6c0.5-2.5,1-4.5,1.2-6.2c0-0.5-0.1-1.2-0.4-2.1
            c-0.3-0.8-0.8-1.7-1.6-2.7c-0.8-1-1.6-1.7-2.5-2.3c-0.8-0.5-1.5-1-2.1-1.2h-67.4v26.3c0,0.5,0,1.2,0,1.9c0,0.7,0,1.4,0,2.3
            c0,0.8,0,1.6,0,2.3c0,0.7,0,1.3,0,1.9v16.4c0,0.5-0.1,1.2-0.2,2.1c-0.1,0.8-0.5,1.8-1,2.9c-0.6,1.1-1.2,2.1-1.9,2.9
            c-0.2,0.2-0.4,0.4-0.5,0.6c-0.8,0.9-2,1.4-3.2,1.4l0,0c-0.7,0-1.4-0.1-2.1-0.2c-0.7-0.1-1.2-0.3-1.6-0.6c-0.4-0.3-0.8-0.5-1-0.8
            c-0.6-0.5-1-1.3-1.4-2.3c-0.4-1-0.6-2.1-0.6-3.5c0-1.4,0.1-2.5,0.2-3.5c0.1-1,0.2-1.7,0.2-2.3v-47.7H30.5c-1.5,0-3,0.3-4.3,1l0,0
            c-0.8,0.4-1.6,1-2.5,1.6c-0.8,0.7-1.4,1.4-1.6,2.1c0,0,0,0,0,0c-0.3,0.8-0.4,1.7-0.3,2.6c0.3,2.6,0.7,5.7,1.4,9.3
            c0.7,4,1.2,8.6,1.6,13.8s0.3,9.8-0.4,13.8c-0.7,4-1.5,7.3-2.6,10c0,0.3,0,0.7,0,1.1c0,0.4,0,0.8,0,1.2c0,0.4-0.5,0.8-0.5,1.1
            l-2.7,2.1c-1.1,0.8-2.5,1.2-3.8,1.2h-1.4c-0.9,0-1.8-0.4-2.5-1l0,0c-0.4-0.4-0.8-0.9-1.2-1.4c-0.4-0.6-0.7-1-0.8-1.4
            c-0.1-0.4-0.2-0.8-0.2-1c0.3-1.6,0.7-3.6,1.2-6c0.5-2.3,1.2-4.9,1.9-7.8c0.7-2.9,1.2-5.3,1.4-7.4c0.3-2.1,0.4-3.8,0.4-5.1
            c0-1.1-0.2-2.5-0.6-4.3c-0.4-1.8-1-3.9-1.9-6.4c-0.8-2.5-1.4-4.6-1.9-6.4l0-0.1c-0.6-2.7-0.5-5.6,0.4-8.2c0.8-2.2,2.1-4.5,3.7-6.7
            c2.6-3.6,6.6-6.2,12.1-8c5.5-1.8,10.3-2.7,14.6-2.7c4.2,0,7.5,0,9.7,0c2.7,0,6.1,0,10.1,0c4,0,8.6,0.1,13.8,0.2
            c5.2,0.1,9.8,0.3,13.8,0.6c4,0.3,7.3,0.5,10.1,0.8v-8.2H67.7c-2.2,0.5-5.2,0.8-9,0.6c-3.8-0.1-7.9-1.4-12.3-3.9
            c-4.4-2.5-7.4-5.4-9-8.8c-1.6-3.4-2.5-6.5-2.5-9.3c0-0.3,0-0.7,0-1.2c0-0.5,0-1.2,0-2.1c0-0.8,0-1.5,0-2.1c0-0.5,0-1,0-1.2
            c-1.4,0-3.1,0.1-5.1,0.4c-2.1,0.3-4.5,0.6-7.2,1c-2.7,0.4-5.1,0.6-7.2,0.6c-1.5,0-2.9-0.1-4-0.2c-0.7-0.1-1.3-0.5-1.6-1.1h0
            c-0.8-1.5-1.2-3.2-1.2-4.9v0c0-1.5,0.6-2.9,1.6-4h0l87.2-9.9v-9.9h-28c-1.1,0-2.4,0-3.9,0c-1.5,0-3.2,0-4.9,0c-1.8,0-3.3,0-4.5,0
            c-1.2,0-2.3,0-3.1,0H36.4c-1.9,0.3-4.5,0-7.6-0.8c-3.2-0.8-6.5-2.7-10.1-5.8c-3.6-3-6.1-6-7.6-9c-1.5-3-2.4-5.5-2.7-7.4
            c-0.5-2.2-0.3-5.2,0.6-9c1-3.8,3.4-7.8,7.2-11.9c3.8-4.1,7.6-6.7,11.3-7.8c3.7-1.1,6.5-0.8,8.8-0.8h19.7c6.9,0,15.4-0.1,25.7-0.4
            c10.3-0.3,22.3-0.5,36.2-0.8c13.8-0.3,26-0.3,36.6,0c6.4,0.2,12.1,0.4,17.3,0.6c8.3,0.4,16,4.7,20.8,11.5l0,0
            c3.6,5.1,4.8,11.2,3.7,18.3c-1.1,7.1-4,12.4-8.6,15.8c-4.7,3.4-9.1,5.4-13.2,6c-0.2,0-0.4,0-0.6,0.1c-0.2,0-0.2,0-0.7,0.1
            c0,0,0,0,0,0c-0.6,0.3-1.4,0.4-2.1,0.6c-0.5,0.1-1.1,0.2-1.6,0.2c-2.9-0.1-6.1,0.2-9.8,0.1c-5.3-0.1-11.5-0.1-18.5,0
            c-7,0.1-13,0.3-18.1,0.4c-5.1,0.1-9.3,0.2-12.5,0.2v9.9c4.7,0.5,10.5,1.1,17.5,1.6c7,0.5,15.1,1.2,24.5,1.9
            c9.3,0.7,17.5,1.4,24.5,2.3c7,0.8,12.8,1.6,17.5,2.5L196,82z M172,19.4c-0.8,0.1-1.5,0.2-2.3,0.2H140c-6.3,0.3-14.2,0.5-23.6,0.6
            c-9.5,0.1-20.5,0.2-33.1,0.2c-12.6,0-23.6,0.1-33.1,0.2c-6.8,0.1-12.8,0.2-18,0.4c-4.9,0.2-9.4,3-11.6,7.4
            c-0.1,0.1-0.1,0.3-0.2,0.5c-1.6,3.4-1.6,7.3,0.2,11.5c1.8,4.2,4.5,7.1,8,8.6c3.6,1.5,6.7,2.1,9.5,1.9c7.7,0,17.3-0.1,28.8-0.2
            c11.5-0.1,24.9-0.3,40.3-0.6c15.3-0.3,28.8-0.5,40.3-0.6c11.5-0.1,21.1-0.2,28.8-0.2c1.1-0.3,2.3-1,3.7-2.1
            c1.4-1.1,2.6-2.7,3.7-4.9c1.1-2.2,1.8-4.1,2.1-5.8c0.3-1.6,0.4-2.9,0.4-3.7c0-1.4-0.4-3-1.2-4.9c-0.8-1.9-2.3-3.7-4.3-5.3
            c-2.1-1.6-3.9-2.6-5.6-2.9C173.8,19.3,172.8,19.3,172,19.4z M48,100.1c0.3,0.3,0.6,0.7,1,1.2c0.4,0.5,1,1.2,1.6,2.1
            c0.7,0.8,1.4,1.5,2.1,2.1c0.7,0.5,1.3,1,1.9,1.2h92.1c0.5,0,1.2,0,1.9,0c0.7,0,1.4-0.1,2.3-0.2c0.8-0.1,1.6-0.3,2.3-0.6
            c0.7-0.3,1.3-0.5,1.9-0.8c0.5-0.8,1.1-1.9,1.6-3.1c0.5-1.2,1-2.7,1.4-4.3c0.4-1.6,0.8-3.1,1-4.3c0.3-1.2,0.5-2.3,0.8-3.1
            c-5.8-1.1-12.9-2.3-21.4-3.5c-8.5-1.2-18.3-2.1-29.4-2.5c-11.1-0.4-20.8-0.3-29,0.4c-8.2,0.7-15.1,1.4-20.6,2.3
            c-0.8,0.3-1.8,0.5-2.9,0.8c-1.1,0.3-2.3,0.5-3.5,0.6c-1.2,0.1-2.3,0.2-3.1,0.2c-0.8,0-1.5,0-2.1,0V100.1z"/>
    </g>
    <g>
        <linearGradient id="SVGID_2_" gradientUnits="userSpaceOnUse" x1="37.938" y1="35.329" x2="167.8529" y2="35.329">
            <stop  offset="0" style="stop-color:#26C5FF"/>
            <stop  offset="1" style="stop-color:#0D70FF"/>
        </linearGradient>
        <path class="st1" d="M39.6,31c6.9-0.5,15.5-1.1,25.9-1.6c10.4-0.5,22.6-0.9,36.6-1c14-0.1,26.2-0.1,36.6,0.2
            c9.9,0.3,18.1,0.5,24.8,0.8c0.7,0,1.4,0.3,1.9,0.8l1.6,1.6c0.5,0.5,0.8,1.3,0.8,2v2.5c0,0.8-0.3,1.5-0.8,2l0,0
            c-0.5,0.5-1.2,0.8-1.9,0.8c-6.7,0.3-14.8,0.5-24.6,0.8c-10.3,0.3-22.3,0.5-36,0.8c-13.7,0.3-25.7,0.5-36,0.8
            c-9.9,0.3-18.2,0.5-24.9,0.8c-0.6,0-1.2-0.1-1.6-0.4c-0.3-0.2-0.7-0.5-1-0.8c-0.7-0.5-1.3-1.2-1.9-2.1c-0.5-0.8-0.9-1.5-1-2.1
            c-0.1-0.5-0.2-1-0.2-1.2c0-0.3,0-0.6,0-1c0-0.4,0.1-0.9,0.2-1.4c0.1-0.5,0.3-1,0.6-1.4C39,31.6,39.3,31.2,39.6,31z"/>
    </g>
</g>
</svg>
